#N canvas 395 0 962 686 10;
#X obj 568 144 _format_serial_messages;
#X obj 568 167 s to_arduino;
#X obj 12 7 cnv 15 250 200 empty empty Serial_Communication 20 12 0
14 -204786 -66577 0;
#X msg 49 83 close;
#X msg 24 43 devices;
#X obj 60 104 r to_arduino;
#X text 94 44 <- print the ports;
#X text 92 84 <- select the port number;
#X obj 24 128 comport 9 115200;
#X msg 38 63 open 9;
#X obj 24 179 s;
#X obj 24 157 serial_print any;
#X obj 265 7 cnv 15 250 200 empty empty empty 20 12 0 14 -228856 -66577
0;
#X floatatom 282 156 5 0 0 0 - - -;
#X msg 304 130 4095;
#X msg 282 101 1023;
#X obj 282 74 loadbang;
#X text 343 99 10-bit Arduino resolution;
#X text 343 129 12-bit Teensy resolution;
#X text 281 28 Configuration;
#X obj 282 179 s res;
#X obj 11 230 cnv 15 720 250 empty empty empty 20 12 0 14 -262130 -66577
0;
#X obj 24 325 vsl 15 128 0 1 0 0 empty empty empty 0 -9 0 10 -262144
-1 -1 62 1;
#X obj 24 249 r a0;
#X obj 42 323 s _a0;
#N canvas 390 113 450 300 scale 0;
#X obj 34 54 unpack s f;
#X floatatom 91 125 8 0 0 0 - - -;
#X floatatom 152 54 5 0 0 0 - - -;
#X obj 91 89 cyclone/scale 0 4095 0 1 1;
#X obj 34 18 inlet;
#X obj 152 18 inlet;
#X obj 91 160 outlet;
#X connect 0 1 3 0;
#X connect 1 0 6 0;
#X connect 2 0 3 2;
#X connect 3 0 1 0;
#X connect 4 0 0 0;
#X connect 5 0 2 0;
#X restore 24 281 pd scale;
#X obj 69 249 r res;
#X obj 111 325 vsl 15 128 0 1 0 0 empty empty empty 0 -9 0 10 -262144
-1 -1 37 1;
#N canvas 0 50 450 300 scale 0;
#X obj 34 54 unpack s f;
#X floatatom 91 125 8 0 0 0 - - -;
#X floatatom 152 54 5 0 0 0 - - -;
#X obj 91 89 cyclone/scale 0 4095 0 1 1;
#X obj 34 18 inlet;
#X obj 152 18 inlet;
#X obj 91 160 outlet;
#X connect 0 1 3 0;
#X connect 1 0 6 0;
#X connect 2 0 3 2;
#X connect 3 0 1 0;
#X connect 4 0 0 0;
#X connect 5 0 2 0;
#X restore 111 281 pd scale;
#X obj 156 249 r res;
#X obj 111 249 r a1;
#X obj 129 323 s _a1;
#X obj 198 325 vsl 15 128 0 1 0 0 empty empty empty 0 -9 0 10 -262144
-1 -1 25 1;
#N canvas 0 50 450 300 scale 0;
#X obj 34 54 unpack s f;
#X floatatom 91 125 8 0 0 0 - - -;
#X floatatom 152 54 5 0 0 0 - - -;
#X obj 91 89 cyclone/scale 0 4095 0 1 1;
#X obj 34 18 inlet;
#X obj 152 18 inlet;
#X obj 91 160 outlet;
#X connect 0 1 3 0;
#X connect 1 0 6 0;
#X connect 2 0 3 2;
#X connect 3 0 1 0;
#X connect 4 0 0 0;
#X connect 5 0 2 0;
#X restore 198 281 pd scale;
#X obj 243 249 r res;
#X obj 285 325 vsl 15 128 0 1 0 0 empty empty empty 0 -9 0 10 -262144
-1 -1 25 1;
#N canvas 0 50 450 300 scale 0;
#X obj 34 54 unpack s f;
#X floatatom 91 125 8 0 0 0 - - -;
#X floatatom 152 54 5 0 0 0 - - -;
#X obj 91 89 cyclone/scale 0 4095 0 1 1;
#X obj 34 18 inlet;
#X obj 152 18 inlet;
#X obj 91 160 outlet;
#X connect 0 1 3 0;
#X connect 1 0 6 0;
#X connect 2 0 3 2;
#X connect 3 0 1 0;
#X connect 4 0 0 0;
#X connect 5 0 2 0;
#X restore 285 281 pd scale;
#X obj 330 249 r res;
#X obj 372 325 vsl 15 128 0 1 0 0 empty empty empty 0 -9 0 10 -262144
-1 -1 7262 1;
#N canvas 0 50 450 300 scale 0;
#X obj 34 54 unpack s f;
#X floatatom 91 125 8 0 0 0 - - -;
#X floatatom 152 54 5 0 0 0 - - -;
#X obj 91 89 cyclone/scale 0 4095 0 1 1;
#X obj 34 18 inlet;
#X obj 152 18 inlet;
#X obj 91 160 outlet;
#X connect 0 1 3 0;
#X connect 1 0 6 0;
#X connect 2 0 3 2;
#X connect 3 0 1 0;
#X connect 4 0 0 0;
#X connect 5 0 2 0;
#X restore 372 281 pd scale;
#X obj 417 249 r res;
#X obj 459 325 vsl 15 128 0 1 0 0 empty empty empty 0 -9 0 10 -262144
-1 -1 5934 1;
#N canvas 0 50 450 300 scale 0;
#X obj 34 54 unpack s f;
#X floatatom 91 125 8 0 0 0 - - -;
#X floatatom 152 54 5 0 0 0 - - -;
#X obj 91 89 cyclone/scale 0 4095 0 1 1;
#X obj 34 18 inlet;
#X obj 152 18 inlet;
#X obj 91 160 outlet;
#X connect 0 1 3 0;
#X connect 1 0 6 0;
#X connect 2 0 3 2;
#X connect 3 0 1 0;
#X connect 4 0 0 0;
#X connect 5 0 2 0;
#X restore 459 281 pd scale;
#X obj 504 249 r res;
#X obj 546 325 vsl 15 128 0 1 0 0 empty empty empty 0 -9 0 10 -262144
-1 -1 534 1;
#N canvas 0 50 450 300 scale 0;
#X obj 34 54 unpack s f;
#X floatatom 91 125 8 0 0 0 - - -;
#X floatatom 152 54 5 0 0 0 - - -;
#X obj 91 89 cyclone/scale 0 4095 0 1 1;
#X obj 34 18 inlet;
#X obj 152 18 inlet;
#X obj 91 160 outlet;
#X connect 0 1 3 0;
#X connect 1 0 6 0;
#X connect 2 0 3 2;
#X connect 3 0 1 0;
#X connect 4 0 0 0;
#X connect 5 0 2 0;
#X restore 546 281 pd scale;
#X obj 591 249 r res;
#X obj 633 325 vsl 15 128 0 1 0 0 empty empty empty 0 -9 0 10 -262144
-1 -1 37 1;
#N canvas 0 50 450 300 scale 0;
#X obj 34 54 unpack s f;
#X floatatom 91 125 8 0 0 0 - - -;
#X floatatom 152 54 5 0 0 0 - - -;
#X obj 91 89 cyclone/scale 0 4095 0 1 1;
#X obj 34 18 inlet;
#X obj 152 18 inlet;
#X obj 91 160 outlet;
#X connect 0 1 3 0;
#X connect 1 0 6 0;
#X connect 2 0 3 2;
#X connect 3 0 1 0;
#X connect 4 0 0 0;
#X connect 5 0 2 0;
#X restore 633 281 pd scale;
#X obj 678 249 r res;
#X obj 198 249 r a2;
#X obj 285 249 r a3;
#X obj 372 249 r a4;
#X obj 459 249 r a5;
#X obj 546 249 r a6;
#X obj 633 249 r a7;
#X obj 216 323 s _a2;
#X obj 303 323 s _a3;
#X obj 390 323 s _a4;
#X obj 477 323 s _a5;
#X obj 564 323 s _a6;
#X obj 651 323 s _a7;
#X obj 568 7 inlet;
#X obj 24 499 outlet;
#X obj 111 499 outlet;
#X obj 198 499 outlet;
#X obj 285 499 outlet;
#X obj 372 499 outlet;
#X obj 459 499 outlet;
#X obj 546 499 outlet;
#X obj 633 499 outlet;
#X msg 726 93 play 0;
#X msg 780 93 stop 0;
#X obj 726 7 inlet;
#X obj 780 7 inlet;
#X msg 568 92 step \$1;
#X obj 568 60 hradio 15 1 0 8 empty empty empty 0 -8 0 10 -262144 -1
-1 0;
#X connect 0 0 1 0;
#X connect 3 0 8 0;
#X connect 4 0 8 0;
#X connect 5 0 8 0;
#X connect 8 0 11 0;
#X connect 9 0 8 0;
#X connect 11 0 10 0;
#X connect 11 1 10 1;
#X connect 13 0 20 0;
#X connect 14 0 13 0;
#X connect 15 0 13 0;
#X connect 16 0 15 0;
#X connect 22 0 63 0;
#X connect 23 0 25 0;
#X connect 25 0 22 0;
#X connect 25 0 24 0;
#X connect 26 0 25 1;
#X connect 27 0 64 0;
#X connect 28 0 27 0;
#X connect 28 0 31 0;
#X connect 29 0 28 1;
#X connect 30 0 28 0;
#X connect 32 0 65 0;
#X connect 33 0 32 0;
#X connect 33 0 56 0;
#X connect 34 0 33 1;
#X connect 35 0 66 0;
#X connect 36 0 35 0;
#X connect 36 0 57 0;
#X connect 37 0 36 1;
#X connect 38 0 67 0;
#X connect 39 0 38 0;
#X connect 39 0 58 0;
#X connect 40 0 39 1;
#X connect 41 0 68 0;
#X connect 42 0 41 0;
#X connect 42 0 59 0;
#X connect 43 0 42 1;
#X connect 44 0 69 0;
#X connect 45 0 44 0;
#X connect 45 0 60 0;
#X connect 46 0 45 1;
#X connect 47 0 70 0;
#X connect 48 0 47 0;
#X connect 48 0 61 0;
#X connect 49 0 48 1;
#X connect 50 0 33 0;
#X connect 51 0 36 0;
#X connect 52 0 39 0;
#X connect 53 0 42 0;
#X connect 54 0 45 0;
#X connect 55 0 48 0;
#X connect 62 0 76 0;
#X connect 71 0 0 0;
#X connect 72 0 0 0;
#X connect 73 0 71 0;
#X connect 74 0 72 0;
#X connect 75 0 0 0;
#X connect 76 0 75 0;
