#N canvas -8 -8 1366 695 12;
#X obj 389 31 cnv 15 280 580 empty empty empty 20 12 0 14 -232576 -66577
0;
#X obj 414 335 vsl 20 250 0 127 0 0 note1 r_note1 1 5 -9 0 10 -262144
-1 -1 24900 1;
#X obj 444 335 vsl 20 250 0 127 0 0 note2 r_note2 2 5 -9 0 10 -262144
-1 -1 11391 1;
#X obj 474 335 vsl 20 250 0 127 0 0 note3 r_note3 3 5 -9 0 10 -262144
-1 -1 9493 1;
#X obj 504 335 vsl 20 250 0 127 0 0 note4 r_note4 4 5 -9 0 10 -262144
-1 -1 10418 1;
#X obj 534 335 vsl 20 250 0 127 0 0 note5 r_note5 5 5 -9 0 10 -262144
-1 -1 9152 1;
#X obj 564 335 vsl 20 250 0 127 0 0 note6 r_note6 6 5 -9 0 10 -262144
-1 -1 12194 1;
#X obj 594 335 vsl 20 250 0 127 0 0 note7 r_note7 7 5 -9 0 10 -262144
-1 -1 10904 1;
#X obj 624 335 vsl 20 250 0 127 0 0 note8 r_note8 8 5 -9 0 10 -262144
-1 -1 11756 1;
#X obj 416 298 bng 15 50 20 0 empty bang1 empty 17 7 0 10 -262144 -4160
-1;
#X obj 446 298 bng 15 50 20 0 empty bang2 empty 17 7 0 10 -262144 -4160
-1;
#X obj 476 298 bng 15 50 20 0 empty bang3 empty 17 7 0 10 -262144 -1
-1;
#X obj 506 298 bng 15 50 20 0 empty bang4 empty 17 7 0 10 -262144 -1
-1;
#X obj 536 298 bng 15 50 20 0 empty bang5 empty 17 7 0 10 -262144 -1
-1;
#X obj 566 298 bng 15 50 20 0 empty bang6 empty 17 7 0 10 -262144 -1
-1;
#X obj 596 298 bng 15 50 20 0 empty bang7 empty 17 7 0 10 -262144 -1
-1;
#X obj 626 298 bng 15 50 20 0 empty bang8 empty 17 7 0 10 -262144 -1
-1;
#X obj 419 256 hsl 220 30 70 350 0 0 tempo_s initial_tempo_s Tempo
95 -8 0 10 -262144 -1 -1 5000 1;
#X obj 416 106 vsl 15 128 0 127 0 0 shape_s load_half_slider Shape
-8 -9 0 10 -262144 -1 -1 4500 1;
#X obj 461 106 vsl 15 128 0 127 0 0 detune_s empty Detune -11 -9 0
10 -262144 -1 -1 0 1;
#X obj 626 106 vsl 15 128 0 127 0 0 noise_s empty Noise -8 -9 0 10
-262144 -1 -1 0 1;
#X obj 581 106 vsl 15 128 0 127 0 0 sustain_s empty Sustain -15 -9
0 10 -262144 -1 -1 11400 1;
#X obj 513 105 vsl 30 128 1.27 127 0 1 cutoff_s initial_cutoff_s LPF
5 -9 0 10 -262144 -1 -1 7500 1;
#X obj 35 31 cnv 15 340 110 empty empty Initialization 20 12 0 12 -261682
-66577 0;
#X obj 49 105 s initial_tempo_s;
#X msg 49 81 210;
#X obj 49 57 loadbang;
#X obj 179 105 s initial_cutoff_s;
#X obj 179 56 loadbang;
#X msg 179 81 127;
#X obj 35 152 cnv 15 340 110 empty empty Metronome 20 12 0 12 -261682
-66577 0;
#X obj 181 237 bng 15 250 50 0 empty empty empty 17 7 0 10 -262144
-1 -1;
#X obj 181 211 proj_metronome;
#X obj 228 159 r tempo_s;
#X floatatom 231 183 5 0 0 0 - - -;
#X text 270 183 BPM;
#X obj 35 273 cnv 15 340 320 empty empty Sound_path 20 12 0 12 -261682
-66577 0;
#X obj 45 320 cnv 15 300 60 empty empty empty 20 12 0 14 -204786 -66577
0;
#X obj 49 329 proj_note;
#X floatatom 49 353 5 0 0 0 - - -;
#X obj 49 413 proj_vco;
#X obj 200 329 r shape_s;
#X floatatom 200 353 5 0 0 0 - - -;
#X floatatom 121 353 5 0 0 0 - - -;
#X obj 121 329 r detune_s;
#X floatatom 272 353 5 0 0 0 - - -;
#X obj 272 329 r noise_s;
#X text 52 302 Slider values from GUI;
#X obj 191 408 cnv 15 170 60 empty empty empty 20 12 0 14 -204786 -66577
0;
#X text 193 390 Slider values from GUI;
#X floatatom 197 440 5 0 0 0 - - -;
#X floatatom 274 440 5 0 0 0 - - -;
#X obj 197 416 r cutoff_s;
#X obj 50 482 proj_vcf;
#X obj 51 519 proj_vca_env;
#X obj 51 561 dac~;
#X obj 181 160 tgl 15 0 empty empty empty 17 7 0 10 -262144 -1 -1 1
1;
#X obj 200 496 bng 15 250 50 0 empty gate empty 17 7 0 10 -262144 -1
-1;
#X text 216 494 Gate;
#X obj 482 40 bng 40 250 50 0 play_s empty Play 9 19 0 10 -204786 -1
-1;
#X obj 533 40 bng 40 250 50 0 stop_s empty Stop 9 19 0 10 -261234 -1
-1;
#X obj 44 223 latch;
#X obj 44 179 r play_s;
#X obj 76 201 r stop_s;
#X obj 680 32 loadbang;
#X msg 680 56 64;
#X obj 680 80 s load_half_slider;
#X obj 274 416 r sustain_s;
#X obj 304 159 r stop_s;
#X obj 688 103 s r_note1;
#X obj 702 125 s r_note2;
#X obj 711 148 s r_note3;
#X obj 721 170 s r_note4;
#X obj 730 192 s r_note5;
#X obj 740 214 s r_note6;
#X obj 749 236 s r_note7;
#X obj 758 258 s r_note8;
#X obj 891 81 connect, f 21;
#X obj 891 107 * 127;
#X obj 911 130 * 127;
#X obj 932 153 * 127;
#X obj 952 176 * 127;
#X obj 973 199 * 127;
#X obj 994 222 * 127;
#X obj 1014 245 * 127;
#X obj 1035 268 * 127;
#X obj 891 290 s r_note1;
#X obj 911 312 s r_note2;
#X obj 932 335 s r_note3;
#X obj 952 357 s r_note4;
#X obj 973 379 s r_note5;
#X obj 994 401 s r_note6;
#X obj 1014 423 s r_note7;
#X obj 1035 445 s r_note8;
#X obj 973 51 r play_s;
#X obj 1056 51 r stop_s;
#X obj 276 236 s step;
#X obj 891 51 r step;
#X obj 867 81 vradio 15 1 0 8 empty empty empty 0 -8 0 10 -262144 -1
-1 4;
#X floatatom 624 593 5 0 0 0 - - -;
#X obj 684 325 loadbang;
#X msg 684 351 24;
#X obj 684 375 s low_note;
#X obj 765 375 s top_note;
#X msg 765 351 50;
#X connect 8 0 99 0;
#X connect 25 0 24 0;
#X connect 26 0 25 0;
#X connect 28 0 29 0;
#X connect 29 0 27 0;
#X connect 32 0 31 0;
#X connect 32 1 96 0;
#X connect 33 0 34 0;
#X connect 33 0 32 1;
#X connect 38 0 39 0;
#X connect 39 0 40 0;
#X connect 40 0 53 0;
#X connect 41 0 42 0;
#X connect 42 0 40 2;
#X connect 43 0 40 1;
#X connect 44 0 43 0;
#X connect 45 0 40 3;
#X connect 46 0 45 0;
#X connect 50 0 53 1;
#X connect 51 0 54 1;
#X connect 52 0 50 0;
#X connect 53 0 54 0;
#X connect 54 0 55 0;
#X connect 54 0 55 1;
#X connect 56 0 32 0;
#X connect 57 0 54 2;
#X connect 61 0 56 0;
#X connect 62 0 61 0;
#X connect 63 0 61 1;
#X connect 64 0 65 0;
#X connect 65 0 66 0;
#X connect 65 0 69 0;
#X connect 65 0 70 0;
#X connect 65 0 71 0;
#X connect 65 0 72 0;
#X connect 65 0 73 0;
#X connect 65 0 74 0;
#X connect 65 0 75 0;
#X connect 65 0 76 0;
#X connect 67 0 51 0;
#X connect 68 0 32 2;
#X connect 77 0 78 0;
#X connect 77 1 79 0;
#X connect 77 2 80 0;
#X connect 77 3 81 0;
#X connect 77 4 82 0;
#X connect 77 5 83 0;
#X connect 77 6 84 0;
#X connect 77 7 85 0;
#X connect 78 0 86 0;
#X connect 79 0 87 0;
#X connect 80 0 88 0;
#X connect 81 0 89 0;
#X connect 82 0 90 0;
#X connect 83 0 91 0;
#X connect 84 0 92 0;
#X connect 85 0 93 0;
#X connect 94 0 77 1;
#X connect 95 0 77 2;
#X connect 97 0 98 0;
#X connect 97 0 77 0;
#X connect 100 0 101 0;
#X connect 100 0 104 0;
#X connect 101 0 102 0;
#X connect 104 0 103 0;
