#N canvas -7 0 681 686 12;
#X obj 619 95 cnv 15 280 400 empty empty empty 20 12 0 14 -232576 -66577
0;
#X obj 646 353 vsl 15 128 0 127 0 0 note1 empty 1 5 -9 0 10 -262144
-1 -1 6000 1;
#X obj 676 353 vsl 15 128 0 127 0 0 note2 empty 2 5 -9 0 10 -262144
-1 -1 6700 1;
#X obj 706 353 vsl 15 128 0 127 0 0 note3 empty 3 5 -9 0 10 -262144
-1 -1 7200 1;
#X obj 736 353 vsl 15 128 0 127 0 0 note4 empty 4 5 -9 0 10 -262144
-1 -1 8400 1;
#X obj 766 353 vsl 15 128 0 127 0 0 note5 empty 5 5 -9 0 10 -262144
-1 -1 8800 1;
#X obj 796 353 vsl 15 128 0 127 0 0 note6 empty 6 5 -9 0 10 -262144
-1 -1 9600 1;
#X obj 826 353 vsl 15 128 0 127 0 0 note7 empty 7 5 -9 0 10 -262144
-1 -1 10300 1;
#X obj 856 353 vsl 15 128 0 127 0 0 note8 empty 8 5 -9 0 10 -262144
-1 -1 10900 1;
#X obj 646 316 bng 15 50 20 0 empty bang1 empty 17 7 0 10 -262144 -4160
-1;
#X obj 676 316 bng 15 50 20 0 empty bang2 empty 17 7 0 10 -262144 -4160
-1;
#X obj 706 316 bng 15 50 20 0 empty bang3 empty 17 7 0 10 -262144 -1
-1;
#X obj 736 316 bng 15 50 20 0 empty bang4 empty 17 7 0 10 -262144 -1
-1;
#X obj 766 316 bng 15 50 20 0 empty bang5 empty 17 7 0 10 -262144 -1
-1;
#X obj 796 316 bng 15 50 20 0 empty bang6 empty 17 7 0 10 -262144 -1
-1;
#X obj 826 316 bng 15 50 20 0 empty bang7 empty 17 7 0 10 -262144 -1
-1;
#X obj 856 316 bng 15 50 20 0 empty bang8 empty 17 7 0 10 -262144 -1
-1;
#X obj 649 274 hsl 220 30 70 350 0 0 tempo_s initial_tempo_s Tempo
95 -8 0 10 -262144 -1 -1 13500 1;
#X obj 646 124 vsl 15 128 0 127 0 0 shape_s empty Shape 0 -9 0 10 -262144
-1 -1 500 1;
#X obj 691 124 vsl 15 128 0 127 0 0 detune_s empty Detune 0 -9 0 10
-262144 -1 -1 9300 1;
#X obj 856 124 vsl 15 128 0 127 0 0 noise_s empty Noise 0 -9 0 10 -262144
-1 -1 0 1;
#X obj 811 124 vsl 15 128 0 127 0 0 decay_s empty Decay 0 -9 0 10 -262144
-1 -1 0 1;
#X obj 743 123 vsl 30 128 1.27 127 0 1 cutoff_s initial_cutoff_s LPF
0 -9 0 10 -262144 -1 -1 9400 1;
#X obj 35 31 cnv 15 320 110 empty empty Initialization 20 12 0 12 -261682
-66577 0;
#X obj 49 105 s initial_tempo_s;
#X msg 49 81 210;
#X obj 49 57 loadbang;
#X obj 179 105 s initial_cutoff_s;
#X obj 179 56 loadbang;
#X msg 179 81 127;
#X obj 35 152 cnv 15 320 110 empty empty Metronome 20 12 0 12 -261682
-66577 0;
#X obj 49 233 bng 15 250 50 0 empty empty empty 17 7 0 10 -262144 -1
-1;
#X obj 49 207 proj_metronome;
#X obj 144 180 r tempo_s;
#X floatatom 155 208 5 0 0 0 - - -;
#X text 194 208 BPM;
#X obj 35 269 cnv 15 320 320 empty empty Sound_path 20 12 0 12 -261682
-66577 0;
#X obj 45 316 cnv 15 300 60 empty empty empty 20 12 0 14 -204786 -66577
0;
#X obj 49 325 proj_note;
#X floatatom 49 349 5 0 0 0 - - -;
#X obj 49 408 proj_vco;
#X obj 200 325 r shape_s;
#X floatatom 200 349 5 0 0 0 - - -;
#X floatatom 121 349 5 0 0 0 - - -;
#X obj 121 325 r detune_s;
#X floatatom 272 349 5 0 0 0 - - -;
#X obj 272 325 r noise_s;
#X text 52 298 Slider values from GUI;
#X obj 192 404 cnv 15 155 60 empty empty empty 20 12 0 14 -204786 -66577
0;
#X text 193 386 Slider values from GUI;
#X floatatom 197 436 5 0 0 0 - - -;
#X floatatom 274 436 5 0 0 0 - - -;
#X obj 197 412 r cutoff_s;
#X obj 274 412 r decay_s;
#X obj 49 478 proj_vcf;
#X obj 50 515 proj_vca_env;
#X obj 50 557 dac~;
#X obj 49 181 tgl 15 0 empty empty empty 17 7 0 10 -262144 -1 -1 1
1;
#X connect 25 0 24 0;
#X connect 26 0 25 0;
#X connect 28 0 29 0;
#X connect 29 0 27 0;
#X connect 32 0 31 0;
#X connect 33 0 32 1;
#X connect 33 0 34 0;
#X connect 38 0 39 0;
#X connect 39 0 40 0;
#X connect 40 0 54 0;
#X connect 41 0 42 0;
#X connect 42 0 40 2;
#X connect 43 0 40 1;
#X connect 44 0 43 0;
#X connect 45 0 40 3;
#X connect 46 0 45 0;
#X connect 50 0 54 1;
#X connect 51 0 55 1;
#X connect 52 0 50 0;
#X connect 53 0 51 0;
#X connect 54 0 55 0;
#X connect 55 0 56 0;
#X connect 55 0 56 1;
#X connect 57 0 32 0;
