#N canvas 493 93 450 300 12;
#X obj 94 167 metro;
#X floatatom 137 102 5 0 0 0 - - -;
#X obj 94 189 bng 15 250 50 0 gate empty empty 17 7 0 10 -262144 -1
-1;
#X obj 94 208 f;
#X obj 127 207 + 1;
#X obj 94 231 mod 8;
#X obj 94 254 hradio 15 1 0 8 empty empty empty 0 -8 0 10 -262144 -1
-1 6;
#X obj 94 273 select 0 1 2 3 4 5 6 7;
#X obj 94 297 s bang1;
#X obj 112 319 s bang2;
#X obj 131 341 s bang3;
#X obj 150 363 s bang4;
#X obj 170 385 s bang5;
#X obj 188 406 s bang6;
#X obj 207 428 s bang7;
#X obj 226 450 s bang8;
#X obj 137 58 loadbang;
#X msg 137 80 120;
#X obj 137 123 expr 60000/$f1;
#X floatatom 137 145 5 0 0 0 - - -;
#X obj 94 58 inlet;
#X obj 303 232 outlet;
#X obj 303 208 r gate;
#X obj 201 58 inlet;
#X text 202 39 tempo inlet;
#X text 19 59 start bang;
#X connect 0 0 2 0;
#X connect 0 0 3 0;
#X connect 1 0 18 0;
#X connect 3 0 4 0;
#X connect 3 0 5 0;
#X connect 4 0 3 1;
#X connect 5 0 6 0;
#X connect 6 0 7 0;
#X connect 7 0 8 0;
#X connect 7 1 9 0;
#X connect 7 2 10 0;
#X connect 7 3 11 0;
#X connect 7 4 12 0;
#X connect 7 5 13 0;
#X connect 7 6 14 0;
#X connect 7 7 15 0;
#X connect 16 0 17 0;
#X connect 17 0 1 0;
#X connect 18 0 19 0;
#X connect 19 0 0 1;
#X connect 20 0 0 0;
#X connect 22 0 21 0;
#X connect 23 0 1 0;
