#N canvas 0 50 450 300 12;
#X obj 116 78 inlet~;
#X obj 166 78 inlet;
#X obj 116 136 lop~;
#X obj 166 102 mtof;
#X obj 115 162 outlet~;
#X connect 0 0 2 0;
#X connect 1 0 3 0;
#X connect 2 0 4 0;
#X connect 3 0 2 1;
