#N canvas -8 -8 1366 695 12;
#X obj 143 15 cnv 15 770 60 empty empty empty 20 12 0 14 -204786 -66577
0;
#X floatatom 154 81 5 0 0 0 - - -;
#X obj 814 49 inlet Noise;
#X floatatom 814 80 5 0 0 0 - - -;
#X obj 814 102 / 127;
#X floatatom 814 126 5 0 0 0 - - -;
#X obj 814 197 s noisepart;
#X obj 154 107 s main_frequency;
#X obj 141 492 cnv 15 200 240 empty empty Mix_oscillators_and_noise
20 12 0 12 -233017 -33289 0;
#X obj 255 544 r noisepart;
#X obj 181 595 - 1;
#X obj 181 619 * -1;
#X obj 164 523 r~ oscsignal;
#X obj 163 665 *~;
#X obj 226 665 *~;
#X obj 140 163 cnv 15 600 320 empty empty Oscillators 20 12 0 12 -261682
-33289 0;
#X obj 154 252 osc~;
#X obj 362 254 phasor~;
#X obj 363 282 expr~ $v1 > 0.5;
#X obj 627 309 / 100;
#X obj 627 360 line~;
#X obj 627 336 pack 0 50;
#X obj 264 333 line~;
#X obj 264 306 pack 0 50;
#X obj 477 408 *~;
#X obj 216 406 *~;
#X obj 215 252 osc~;
#X obj 476 254 phasor~;
#X obj 477 282 expr~ $v1 > 0.5;
#X obj 264 252 r shape;
#X obj 154 276 /~ 2;
#X obj 215 276 /~ 2;
#X obj 363 306 /~ 2;
#X obj 477 306 /~ 2;
#X obj 216 451 s~ oscsignal;
#X obj 154 188 r main_frequency;
#X obj 362 187 r main_frequency;
#X obj 215 211 r detuned_frequency;
#X obj 476 210 r detuned_frequency;
#X obj 227 632 noise~;
#X text 856 102 Reduce range to [0 \, 1];
#X text 816 21 Noise slider [0-127];
#X text 626 21 Shape slider [0-127];
#X text 152 17 Main note (freq.);
#X text 342 17 Detune slider [0-127];
#X obj 876 474 tgl 15 0 empty empty empty 17 7 0 10 -262144 -1 -1 1
1;
#X obj 876 520 bng 15 250 50 0 empty empty empty 17 7 0 10 -262144
-1 -1;
#N canvas 0 50 450 250 (subpatch) 0;
#X array osc_signal 100 float 5;
#A 0 1.2552 0.648287 0.0338479 0.0227529 0.00718516 -0.00979258 -0.0248408
-0.0350013 0.571725 1.18598 1.19692 1.2124 1.22937 1.2445 1.2548 0.648259
0.0341904 0.023399 0.00800745 -0.00895559 -0.024154 -0.0345988 0.571762
1.18565 1.19628 1.21158 1.22854 1.24381 1.25439 0.648211 0.0345143
0.0240306 0.00882329 -0.00811627 -0.0234563 -0.0341796 0.571821 1.18533
1.19566 1.21077 1.2277 1.2431 1.25396 0.648142 0.0348188 0.0246479
0.00963196 -0.00727522 -0.0227477 -0.0337439 0.5719 1.18504 1.19505
1.20997 1.22685 1.24239 1.25352 0.648054 0.0351036 0.0252504 0.0104331
-0.0064326 -0.0220296 -0.0332907 0.571998 1.18476 1.19445 1.20917 1.22601
1.24167 1.25306 0.647946 0.0353693 0.0258375 0.0112264 -0.00558922
-0.0213021 -0.0328216 0.572116 1.18451 1.19387 1.20838 1.22517 1.24093
1.25258 0.647818 0.0356153 0.0264091 0.0120114 -0.00474562 -0.0205651
-0.0323371 0.572254 1.18427 1.19331 1.2076 1.22432 1.24019 1.25209
0.64767;
#X coords 0 1 100 -1 200 140 1;
#X restore 944 438 graph;
#X obj 627 254 r shape;
#X obj 627 104 s shape;
#X obj 264 279 / 127;
#X obj 627 282 expr 127 - $i1;
#X obj 817 438 r~ oscsignal;
#X floatatom 291 633 5 0 0 0 - - -;
#X floatatom 181 642 5 0 0 0 - - -;
#X obj 861 125 loadbang;
#X floatatom 861 172 5 0 0 0 - - -;
#X obj 1063 15 cnv 15 200 300 empty empty Detune 20 12 0 14 -261682
-66577 0;
#X obj 1097 235 +;
#X obj 1097 282 s detuned_frequency;
#X obj 1138 108 / 10;
#X obj 1138 132 mtof;
#X obj 1138 179 -;
#X obj 1190 153 mtof;
#X floatatom 1150 209 5 0 0 0 - - -;
#X floatatom 1190 178 5 0 0 0 - - -;
#X obj 1190 107 loadbang;
#X floatatom 1190 131 5 0 0 0 - - -;
#X floatatom 1097 259 5 0 0 0 - - -;
#X obj 1111 209 t b;
#X obj 1135 78 r detune_inlet;
#X obj 1097 55 r main_frequency;
#X obj 344 104 s detune_inlet;
#X floatatom 344 80 5 0 0 0 - - -;
#X floatatom 627 81 5 0 0 0 - - -;
#X msg 861 149 0;
#X obj 154 48 inlet;
#X obj 344 47 inlet;
#X obj 627 48 inlet;
#X obj 164 706 outlet~;
#X obj 876 493 metro 50;
#X obj 363 330 +~;
#X obj 176 336 +~;
#X obj 818 559 tabwrite~ osc_signal;
#X connect 1 0 7 0;
#X connect 2 0 3 0;
#X connect 3 0 4 0;
#X connect 4 0 5 0;
#X connect 5 0 6 0;
#X connect 9 0 10 0;
#X connect 9 0 53 0;
#X connect 10 0 11 0;
#X connect 11 0 54 0;
#X connect 12 0 13 0;
#X connect 13 0 79 0;
#X connect 14 0 79 0;
#X connect 16 0 30 0;
#X connect 17 0 18 0;
#X connect 18 0 32 0;
#X connect 19 0 21 0;
#X connect 20 0 24 1;
#X connect 21 0 20 0;
#X connect 22 0 25 1;
#X connect 23 0 22 0;
#X connect 24 0 34 0;
#X connect 25 0 34 0;
#X connect 26 0 31 0;
#X connect 27 0 28 0;
#X connect 28 0 33 0;
#X connect 29 0 50 0;
#X connect 30 0 82 0;
#X connect 31 0 82 1;
#X connect 32 0 81 0;
#X connect 33 0 81 1;
#X connect 35 0 16 0;
#X connect 36 0 17 0;
#X connect 37 0 26 0;
#X connect 38 0 27 0;
#X connect 39 0 14 0;
#X connect 45 0 80 0;
#X connect 48 0 51 0;
#X connect 50 0 23 0;
#X connect 51 0 19 0;
#X connect 52 0 83 0;
#X connect 53 0 14 1;
#X connect 54 0 13 1;
#X connect 55 0 75 0;
#X connect 56 0 6 0;
#X connect 58 0 68 0;
#X connect 60 0 61 0;
#X connect 61 0 62 0;
#X connect 62 0 69 0;
#X connect 62 0 64 0;
#X connect 62 0 58 1;
#X connect 63 0 62 1;
#X connect 63 0 65 0;
#X connect 66 0 67 0;
#X connect 67 0 63 0;
#X connect 68 0 59 0;
#X connect 69 0 58 0;
#X connect 70 0 60 0;
#X connect 71 0 69 0;
#X connect 71 0 58 0;
#X connect 73 0 72 0;
#X connect 74 0 49 0;
#X connect 75 0 56 0;
#X connect 76 0 1 0;
#X connect 77 0 73 0;
#X connect 78 0 74 0;
#X connect 80 0 46 0;
#X connect 80 0 83 0;
#X connect 81 0 24 0;
#X connect 82 0 25 0;
