#N canvas -8 -8 1366 695 12;
#X floatatom 85 30 5 0 0 0 Note_1 note1 -;
#X obj 86 122 bng 15 250 50 0 empty bang1 Bang_1 -46 7 0 12 -262144
-1 -1;
#X floatatom 86 166 5 0 0 0 - - -;
#X obj 86 205 mtof;
#X floatatom 149 30 5 0 0 0 - note2 -;
#X obj 130 122 bng 15 250 50 0 empty bang2 empty -46 7 0 12 -262144
-1 -1;
#X obj 130 142 f;
#X floatatom 130 166 5 0 0 0 - - -;
#X floatatom 212 30 5 0 0 0 - note3 -;
#X obj 173 122 bng 15 250 50 0 empty bang3 empty -46 7 0 12 -262144
-1 -1;
#X obj 173 142 f;
#X floatatom 173 166 5 0 0 0 - - -;
#X floatatom 276 30 5 0 0 0 - note4 -;
#X obj 215 122 bng 15 250 50 0 empty bang4 empty -46 7 0 12 -262144
-1 -1;
#X obj 215 142 f;
#X floatatom 215 166 5 0 0 0 - - -;
#X floatatom 340 30 5 0 0 0 - note5 -;
#X obj 258 122 bng 15 250 50 0 empty bang5 empty -46 7 0 12 -262144
-1 -1;
#X obj 258 142 f;
#X floatatom 258 166 5 0 0 0 - - -;
#X floatatom 404 30 5 0 0 0 - note6 -;
#X obj 299 122 bng 15 250 50 0 empty bang6 empty -46 7 0 12 -262144
-1 -1;
#X obj 299 142 f;
#X floatatom 299 166 5 0 0 0 - - -;
#X floatatom 467 30 5 0 0 0 - note7 -;
#X obj 342 122 bng 15 250 50 0 empty bang7 empty -46 7 0 12 -262144
-1 -1;
#X obj 342 142 f;
#X floatatom 342 166 5 0 0 0 - - -;
#X floatatom 531 30 5 0 0 0 - note8 -;
#X obj 384 122 bng 15 250 50 0 empty bang8 empty -46 7 0 12 -262144
-1 -1;
#X obj 384 142 f;
#X floatatom 384 166 5 0 0 0 - - -;
#X floatatom 46 230 5 0 0 0 - - note;
#X obj 86 229 outlet;
#X obj 86 142 f;
#X floatatom 85 78 5 0 0 0 - - -;
#X floatatom 149 78 5 0 0 0 - - -;
#X floatatom 212 78 5 0 0 0 - - -;
#X floatatom 276 78 5 0 0 0 - - -;
#X floatatom 340 78 5 0 0 0 - - -;
#X floatatom 404 78 5 0 0 0 - - -;
#X floatatom 467 78 5 0 0 0 - - -;
#X floatatom 531 78 5 0 0 0 - - -;
#X obj 85 54 round_n;
#X obj 149 54 round_n;
#X obj 212 54 round_n;
#X obj 276 54 round_n;
#X obj 340 54 round_n;
#X obj 404 54 round_n;
#X obj 467 54 round_n;
#X obj 531 54 round_n;
#X connect 0 0 43 0;
#X connect 1 0 34 0;
#X connect 2 0 3 0;
#X connect 3 0 32 0;
#X connect 3 0 33 0;
#X connect 4 0 44 0;
#X connect 5 0 6 0;
#X connect 6 0 7 0;
#X connect 7 0 3 0;
#X connect 8 0 45 0;
#X connect 9 0 10 0;
#X connect 10 0 11 0;
#X connect 11 0 3 0;
#X connect 12 0 46 0;
#X connect 13 0 14 0;
#X connect 14 0 15 0;
#X connect 15 0 3 0;
#X connect 16 0 47 0;
#X connect 17 0 18 0;
#X connect 18 0 19 0;
#X connect 19 0 3 0;
#X connect 20 0 48 0;
#X connect 21 0 22 0;
#X connect 22 0 23 0;
#X connect 23 0 3 0;
#X connect 24 0 49 0;
#X connect 25 0 26 0;
#X connect 26 0 27 0;
#X connect 27 0 3 0;
#X connect 28 0 50 0;
#X connect 29 0 30 0;
#X connect 30 0 31 0;
#X connect 31 0 3 0;
#X connect 34 0 2 0;
#X connect 35 0 34 1;
#X connect 36 0 6 1;
#X connect 37 0 10 1;
#X connect 38 0 14 1;
#X connect 39 0 18 1;
#X connect 40 0 22 1;
#X connect 41 0 26 1;
#X connect 42 0 30 1;
#X connect 43 0 35 0;
#X connect 44 0 36 0;
#X connect 45 0 37 0;
#X connect 46 0 38 0;
#X connect 47 0 39 0;
#X connect 48 0 40 0;
#X connect 49 0 41 0;
#X connect 50 0 42 0;
