#N canvas -8 -8 1366 695 12;
#X obj 154 20 inlet Freq;
#X obj 154 123 osc~;
#X obj 421 126 phasor~;
#X obj 422 154 expr~ $v1 > 0.5;
#X obj 606 245 / 100;
#X obj 606 296 line~;
#X obj 606 272 pack 0 50;
#X obj 254 189 / 100;
#X obj 254 243 line~;
#X obj 254 216 pack 0 50;
#X obj 508 331 *~;
#X obj 199 277 *~;
#X obj 606 218 expr 100 - $i1;
#X obj 209 123 osc~;
#X obj 557 126 phasor~;
#X obj 558 154 expr~ $v1 > 0.5;
#X obj 246 51 +;
#X obj 264 20 inlet Detune;
#X floatatom 154 52 5 0 0 0 - - -;
#X obj 387 20 inlet Shape;
#X obj 387 44 s shape;
#X obj 606 191 r shape;
#X obj 254 162 r shape;
#X obj 336 427 outlet~;
#X obj 154 147 /~ 2;
#X obj 209 147 /~ 2;
#X obj 422 178 /~ 2;
#X obj 558 178 /~ 2;
#X connect 0 0 16 0;
#X connect 0 0 18 0;
#X connect 1 0 24 0;
#X connect 2 0 3 0;
#X connect 3 0 26 0;
#X connect 4 0 6 0;
#X connect 5 0 10 1;
#X connect 6 0 5 0;
#X connect 7 0 9 0;
#X connect 8 0 11 1;
#X connect 9 0 8 0;
#X connect 10 0 23 0;
#X connect 11 0 23 0;
#X connect 12 0 4 0;
#X connect 13 0 25 0;
#X connect 14 0 15 0;
#X connect 15 0 27 0;
#X connect 16 0 13 0;
#X connect 16 0 14 0;
#X connect 17 0 16 1;
#X connect 18 0 1 0;
#X connect 18 0 2 0;
#X connect 19 0 20 0;
#X connect 21 0 12 0;
#X connect 22 0 7 0;
#X connect 24 0 11 0;
#X connect 25 0 11 0;
#X connect 26 0 10 0;
#X connect 27 0 10 0;
