#N canvas -8 -8 1680 977 12;
#X obj 467 183 int;
#X obj 467 159 + 0.49999;
#X obj 9 7 inlet;
#X obj 17 213 outlet;
#X obj 467 91 cyclone/scale 0 127 24 107;
#X obj 574 53 r low_note;
#X obj 654 53 r top_note;
#X obj 9 31 scale_note;
#X connect 1 0 0 0;
#X connect 2 0 7 0;
#X connect 4 0 1 0;
#X connect 5 0 4 3;
#X connect 6 0 4 4;
#X connect 7 0 3 0;
