#N canvas 216 154 885 449 10;
#X obj 439 340 outlet~;
#X obj 136 14 inlet~;
#X obj 136 51 delwrite~ \$0-buffer_delay_feedback 5000;
#X obj 649 64 sig~;
#X obj 631 156 *~;
#X text 697 21 feedback amount;
#X obj 649 19 inlet;
#X floatatom 649 44 5 0 0 0 - - -, f 5;
#X obj 439 64 sig~;
#X obj 439 19 inlet;
#X floatatom 439 44 5 0 0 0 - - -, f 5;
#X text 487 21 Delay time (ms);
#X obj 26 198 switch~;
#X obj 26 72 tgl 15 0 empty empty empty 17 7 0 10 -262144 -1 -1 0 1
;
#X obj 26 14 inlet;
#X text 2 218 Enable/disable DSP in this patch;
#X obj 439 258 vd~ \$0-buffer_delay_feedback;
#X obj 78 120 select 0;
#X msg 78 145 clear;
#X connect 1 0 2 0;
#X connect 3 0 4 1;
#X connect 4 0 2 0;
#X connect 6 0 7 0;
#X connect 7 0 3 0;
#X connect 8 0 16 0;
#X connect 9 0 10 0;
#X connect 10 0 8 0;
#X connect 13 0 12 0;
#X connect 13 0 17 0;
#X connect 14 0 13 0;
#X connect 16 0 0 0;
#X connect 16 0 4 0;
#X connect 17 0 18 0;
#X connect 18 0 2 0;
