#N canvas 264 166 450 300 12;
#X obj 78 77 bng 15 250 50 0 empty empty empty 17 7 0 10 -262144 -1
-1;
#X obj 153 76 bng 15 250 50 0 empty empty empty 17 7 0 10 -262144 -1
-1;
#X obj 57 180 tgl 15 0 empty empty empty 17 7 0 10 -262144 -1 -1 0
1;
#X obj 91 126 spigot;
#X obj 130 29 loadbang;
#X msg 130 53 1;
#X msg 92 150 0;
#X obj 150 127 spigot;
#X msg 150 151 0;
#X obj 198 29 loadbang;
#X msg 198 53 0;
#X msg 109 182 1;
#X msg 147 182 1;
#X obj 51 25 inlet;
#X obj 287 26 inlet;
#X obj 56 209 outlet;
#X connect 0 0 3 0;
#X connect 1 0 7 0;
#X connect 2 0 15 0;
#X connect 3 0 2 0;
#X connect 3 0 6 0;
#X connect 3 0 11 0;
#X connect 4 0 5 0;
#X connect 5 0 3 1;
#X connect 6 0 3 1;
#X connect 7 0 8 0;
#X connect 7 0 12 0;
#X connect 8 0 7 1;
#X connect 8 0 2 0;
#X connect 9 0 10 0;
#X connect 10 0 7 1;
#X connect 11 0 7 1;
#X connect 12 0 3 1;
#X connect 13 0 0 0;
#X connect 14 0 1 0;
