#N canvas -8 -8 1366 695 12;
#X obj 10 9 cnv 15 600 450 empty empty empty 20 12 0 14 -204786 -66577
0;
#X text 14 18 OSC Client;
#X obj 18 169 packOSC;
#X obj 18 418 tgl 15 0 empty empty 1=connected 20 8 0 8 -262144 -1
-1 1 1;
#X obj 181 262 loadbang;
#X obj 18 383 netsend -u -b;
#X obj 18 236 prepend send;
#X msg 181 284 connect 192.168.0.12 8080;
#X obj 18 118 prepend /tempo;
#X obj 133 118 prepend /Xaxis;
#X obj 248 118 prepend /Yaxis;
#X obj 363 118 prepend /filter;
#X obj 478 118 prepend /ribbon;
#X obj 18 57 inlet;
#X obj 133 57 inlet;
#X obj 478 57 inlet;
#X obj 363 57 inlet;
#X obj 248 57 inlet;
#X obj 124 416 outlet;
#X msg 85 62 10;
#X connect 2 0 6 0;
#X connect 4 0 7 0;
#X connect 5 0 3 0;
#X connect 5 0 18 0;
#X connect 6 0 5 0;
#X connect 7 0 5 0;
#X connect 8 0 2 0;
#X connect 9 0 2 0;
#X connect 10 0 2 0;
#X connect 11 0 2 0;
#X connect 12 0 2 0;
#X connect 13 0 8 0;
#X connect 14 0 9 0;
#X connect 15 0 12 0;
#X connect 16 0 11 0;
#X connect 17 0 10 0;
#X connect 19 0 8 0;
