#N canvas -8 -8 1366 695 12;
#X obj 16 167 cnv 15 820 220 empty empty empty 20 12 0 14 -204786 -66577
0;
#X floatatom 27 233 5 0 0 0 - - -;
#X obj 631 201 inlet Noise;
#X floatatom 631 232 5 0 0 0 - - -;
#X obj 631 254 / 127;
#X floatatom 631 278 5 0 0 0 - - -;
#X obj 631 349 s noisepart;
#X obj 27 259 s main_frequency;
#X obj 13 315 cnv 15 600 320 empty empty Oscillators 20 12 0 12 -261682
-33289 0;
#X obj 500 461 / 100;
#X obj 500 512 line~;
#X obj 500 488 pack 0 50;
#X obj 137 485 line~;
#X obj 137 458 pack 0 50;
#X obj 350 560 *~;
#X obj 89 558 *~;
#X obj 137 404 r shape;
#X obj 27 428 /~ 2;
#X obj 88 428 /~ 2;
#X obj 236 458 /~ 2;
#X obj 350 458 /~ 2;
#X obj 89 603 s~ oscsignal;
#X obj 27 340 r main_frequency;
#X obj 235 339 r main_frequency;
#X obj 88 363 r detuned_frequency;
#X obj 349 362 r detuned_frequency;
#X text 673 254 Reduce range to [0 \, 1];
#X text 633 173 Noise slider [0-127];
#X text 457 173 Shape slider [0-127];
#X text 25 169 Main note (freq.);
#X text 215 169 Detune slider [0-127];
#X obj 500 406 r shape;
#X obj 458 256 s shape;
#X obj 137 431 / 127;
#X obj 500 434 expr 127 - $i1;
#X obj 678 277 loadbang;
#X floatatom 678 324 5 0 0 0 - - -;
#X obj 842 167 cnv 15 200 300 empty empty Detune_Section 10 12 0 14
-203904 -66577 0;
#X obj 853 378 +;
#X obj 853 425 s detuned_frequency;
#X obj 894 275 mtof;
#X obj 894 322 -;
#X obj 946 296 mtof;
#X floatatom 906 352 5 0 0 0 - - -;
#X floatatom 946 321 5 0 0 0 - - -;
#X obj 946 250 loadbang;
#X floatatom 946 274 5 0 0 0 - - -;
#X floatatom 853 402 5 0 0 0 - - -;
#X obj 867 352 t b;
#X obj 891 221 r detune_inlet;
#X obj 853 198 r main_frequency;
#X obj 217 256 s detune_inlet;
#X floatatom 217 232 5 0 0 0 - - -;
#X floatatom 458 233 5 0 0 0 - - -;
#X msg 678 301 0;
#X obj 27 200 inlet;
#X obj 217 199 inlet;
#X obj 458 200 inlet;
#X obj 236 489 +~;
#X obj 49 488 +~;
#X obj 16 645 cnv 15 200 240 empty empty Mix_oscillators_and_noise
20 12 0 12 -233017 -33289 0;
#X obj 130 697 r noisepart;
#X obj 56 748 - 1;
#X obj 56 772 * -1;
#X obj 39 676 r~ oscsignal;
#X obj 38 818 *~;
#X obj 101 818 *~;
#X obj 102 785 noise~;
#X floatatom 166 786 5 0 0 0 - - -;
#X floatatom 56 795 5 0 0 0 - - -;
#X obj 39 859 outlet~;
#X text 22 8 Oscillators Module This module contains the sound generation
section and it consists of 2 Sine wave oscillators (Unison - detunable)
\, 2 Square wave oscillators (Unison - detunable) and a noise generator.
Inlets: 1 - Note frequency 2 - Detune slider: detune amount of the
two 2nd oscs wrt. to the main oscillators 3 - Shape slider: morph between
Sine and Square wave oscillators 4 - Noise slider: amount of noise
added to the main sound oscs, f 82;
#X obj 283 665 cnv 15 390 180 empty empty empty 20 12 0 14 -191407
-66577 0;
#X obj 297 681 tgl 15 0 empty empty empty 17 7 0 10 -262144 -1 -1 0
1;
#X obj 297 753 bng 15 250 50 0 empty empty empty 17 7 0 10 -262144
-1 -1;
#N canvas 0 50 450 250 (subpatch) 0;
#X array osc_signal 100 float 5;
#A 0 0.66735 0.651668 0.635987 0.620306 0.604625 0.588944 0.573263
0.557582 0.541901 0.52622 0.513539 0.497857 0.482176 0.466495 0.450814
0.435133 0.419452 0.403771 0.38809 0.372409 0.356727 0.341046 0.325365
0.309684 0.294003 0.278322 0.262641 0.24696 0.231279 0.215597 0.199916
0.184235 0.168554 0.152873 0.137192 0.121511 0.10583 0.0901486 0.0744675
0.0587864 0.0431052 0.0274242 0.0117431 0.0108792 0.0256192 0.0413003
0.0569814 0.0726625 0.0883436 0.104025 0.119706 0.135387 0.151068 0.166749
0.18243 0.198111 0.213793 0.229474 0.245155 0.257836 0.273517 0.289198
0.304879 0.32056 0.336241 0.351922 0.367604 0.383285 0.398966 0.414647
0.430328 0.446009 0.46169 0.477371 0.490052 0.505734 0.521415 0.537096
0.552777 0.568458 0.584139 0.59982 0.615501 0.631182 0.646864 0.662545
0.678226 0.693907 0.709588 0.725269 0.74095 0.756631 0.772312 0.787993
0.803675 0.819356 0.835037 0.850718 0.866399 0.88208;
#X coords 0 1 100 -1 200 140 1;
#X restore 453 689 graph;
#X obj 297 786 r~ oscsignal;
#X obj 297 810 tabwrite~ osc_signal;
#X obj 297 730 metro 50;
#X text 319 677 Display;
#X obj 27 404 triangle;
#X obj 88 404 triangle;
#X obj 235 406 square;
#X obj 349 406 square;
#X obj 350 585 *~ 0.3;
#X obj 894 251 / 100;
#X connect 1 0 7 0;
#X connect 2 0 3 0;
#X connect 3 0 4 0;
#X connect 4 0 5 0;
#X connect 5 0 6 0;
#X connect 9 0 11 0;
#X connect 10 0 14 1;
#X connect 11 0 10 0;
#X connect 12 0 15 1;
#X connect 13 0 12 0;
#X connect 14 0 84 0;
#X connect 15 0 21 0;
#X connect 16 0 33 0;
#X connect 17 0 59 0;
#X connect 18 0 59 1;
#X connect 19 0 58 0;
#X connect 20 0 58 1;
#X connect 22 0 80 0;
#X connect 23 0 82 0;
#X connect 24 0 81 0;
#X connect 25 0 83 0;
#X connect 31 0 34 0;
#X connect 33 0 13 0;
#X connect 34 0 9 0;
#X connect 35 0 54 0;
#X connect 36 0 6 0;
#X connect 38 0 47 0;
#X connect 40 0 41 0;
#X connect 41 0 48 0;
#X connect 41 0 43 0;
#X connect 41 0 38 1;
#X connect 42 0 41 1;
#X connect 42 0 44 0;
#X connect 45 0 46 0;
#X connect 46 0 42 0;
#X connect 47 0 39 0;
#X connect 48 0 38 0;
#X connect 49 0 85 0;
#X connect 50 0 48 0;
#X connect 50 0 38 0;
#X connect 52 0 51 0;
#X connect 53 0 32 0;
#X connect 54 0 36 0;
#X connect 55 0 1 0;
#X connect 56 0 52 0;
#X connect 57 0 53 0;
#X connect 58 0 14 0;
#X connect 59 0 15 0;
#X connect 61 0 62 0;
#X connect 61 0 68 0;
#X connect 62 0 63 0;
#X connect 63 0 69 0;
#X connect 64 0 65 0;
#X connect 65 0 70 0;
#X connect 66 0 70 0;
#X connect 67 0 66 0;
#X connect 68 0 66 1;
#X connect 69 0 65 1;
#X connect 73 0 78 0;
#X connect 76 0 77 0;
#X connect 78 0 74 0;
#X connect 78 0 77 0;
#X connect 80 0 17 0;
#X connect 81 0 18 0;
#X connect 82 0 19 0;
#X connect 83 0 20 0;
#X connect 84 0 21 0;
#X connect 85 0 40 0;
