#N canvas -8 -8 1366 695 12;
#X floatatom 41 142 5 0 0 0 - - -;
#X obj 99 185 * -1;
#X msg 171 188 0;
#X obj 41 228 phasor~;
#X obj 142 226 phasor~;
#X msg 220 188 0.5;
#X obj 205 164 bng 15 250 50 0 empty empty empty 0 -6 0 8 -262144 -1
-1;
#X obj 41 296 -~ 1;
#X obj 40 269 +~;
#X text 79 16 3.5.1.1. square;
#X text 226 162 phase synchronization;
#X text 305 42 www.pd-tutorial.com;
#X text 305 17 Johannes Kreidler;
#X obj 41 338 outlet~;
#X obj 41 113 inlet;
#X obj 205 111 loadbang;
#X text 86 112 fundamental;
#X connect 0 0 1 0;
#X connect 0 0 3 0;
#X connect 1 0 4 0;
#X connect 2 0 3 1;
#X connect 3 0 8 0;
#X connect 4 0 8 1;
#X connect 5 0 4 1;
#X connect 6 0 2 0;
#X connect 6 0 5 0;
#X connect 7 0 13 0;
#X connect 8 0 7 0;
#X connect 14 0 0 0;
#X connect 15 0 6 0;
