#N canvas -8 -8 1366 695 12;
#X floatatom 38 148 5 0 0 0 - - -;
#X obj 75 176 * -1;
#X msg 186 111 0;
#X obj 38 222 phasor~;
#X obj 140 220 phasor~;
#X obj 39 262 *~ 2;
#X obj 38 289 -~ 1;
#X obj 38 317 clip~ 0 1;
#X obj 140 261 *~ 2;
#X obj 139 288 -~ 1;
#X obj 138 316 clip~ 0 1;
#X obj 39 387 +~;
#X text 235 39 www.pd-tutorial.com;
#X text 240 15 Johannes Kreidler;
#X obj 38 111 inlet;
#X obj 40 420 outlet~;
#X text 34 16 Triangle Wave;
#X text 82 110 Fundamental;
#X text 220 110 Phase synchronization;
#X obj 186 82 loadbang;
#X connect 0 0 1 0;
#X connect 0 0 3 0;
#X connect 1 0 4 0;
#X connect 2 0 4 1;
#X connect 2 0 3 1;
#X connect 3 0 5 0;
#X connect 4 0 8 0;
#X connect 5 0 6 0;
#X connect 6 0 7 0;
#X connect 7 0 11 0;
#X connect 8 0 9 0;
#X connect 9 0 10 0;
#X connect 10 0 11 1;
#X connect 11 0 15 0;
#X connect 14 0 0 0;
#X connect 19 0 2 0;
